
#
# '/mnt/sdcard/Download/cds-data/video/video_05_mpeg4 (5min).avi'
#
General
Count                                    : 284
Count of stream of this kind             : 1
Kind of stream                           : General
Kind of stream                           : General
Stream identifier                        : 0
Count of video streams                   : 1
Count of audio streams                   : 1
Video_Format_List                        : MPEG-4 Visual
Video_Format_WithHint_List               : MPEG-4 Visual (XviD)
Codecs Video                             : XviD
Audio_Format_List                        : MPEG Audio
Audio_Format_WithHint_List               : MPEG Audio (MP3)
Audio codecs                             : MPEG-1 Audio layer 3
Complete name                            : /mnt/sdcard/Download/cds-data/video/video_05_mpeg4 (5min).avi
Folder name                              : /mnt/sdcard/Download/cds-data/video
File name                                : video_05_mpeg4 (5min)
File extension                           : avi
Format                                   : AVI
Format                                   : AVI
Format/Info                              : Audio Video Interleave
Format/Extensions usually used           : avi
Commercial name                          : AVI
Internet media type                      : video/vnd.avi
Interleaved                              : Yes
Codec                                    : AVI
Codec                                    : AVI
Codec/Info                               : Audio Video Interleave
Codec/Extensions usually used            : avi
File size                                : 23458986
File size                                : 22.4 MiB
File size                                : 22 MiB
File size                                : 22 MiB
File size                                : 22.4 MiB
File size                                : 22.37 MiB
Duration                                 : 300082
Duration                                 : 5mn 0s
Duration                                 : 5mn 0s 82ms
Duration                                 : 5mn 0s
Duration                                 : 00:05:00.082
Overall bit rate                         : 625402
Overall bit rate                         : 625 Kbps
Stream size                              : 372876
Stream size                              : 364 KiB (2%)
Stream size                              : 364 KiB
Stream size                              : 364 KiB
Stream size                              : 364 KiB
Stream size                              : 364.1 KiB
Stream size                              : 364 KiB (2%)
Proportion of this stream                : 0.01589
File last modification date              : UTC 2014-11-26 06:30:29
File last modification date (local)      : 2014-11-26 15:30:29

Video
Count                                    : 272
Count of stream of this kind             : 1
Kind of stream                           : Video
Kind of stream                           : Video
Stream identifier                        : 0
StreamOrder                              : 0
ID                                       : 0
ID                                       : 0
Format                                   : MPEG-4 Visual
Commercial name                          : MPEG-4 Visual
Format profile                           : Simple@L2
Format settings, BVOP                    : No
Format settings, BVOP                    : No
Format settings, QPel                    : No
Format settings, QPel                    : No
Format settings, GMC                     : 0
Format settings, GMC                     : No warppoints
Format settings, Matrix                  : Default (H.263)
Format settings, Matrix                  : Default (H.263)
Internet media type                      : video/MP4V-ES
Codec ID                                 : XVID
Codec ID/Hint                            : XviD
Codec ID/Url                             : http://mediaarea.net/XVID
Codec                                    : XVID
Codec                                    : XviD
Codec/Family                             : MPEG-4V
Codec/Info                               : XviD project
Codec/Url                                : http://www.xvid.org/Downloads.15.0.html
Codec/CC                                 : XVID
Codec profile                            : Simple@L2
Codec settings, Packet bitstream         : No
Codec settings, BVOP                     : No
Codec settings, QPel                     : No
Codec settings, GMC                      : 0
Codec settings, GMC                      : No warppoints
Codec settings, Matrix                   : Default (H.263)
Duration                                 : 300080
Duration                                 : 5mn 0s
Duration                                 : 5mn 0s 80ms
Duration                                 : 5mn 0s
Duration                                 : 00:05:00.080
Bit rate                                 : 487459
Bit rate                                 : 487 Kbps
Width                                    : 1280
Width                                    : 1 280 pixels
Height                                   : 720
Height                                   : 720 pixels
Pixel aspect ratio                       : 1.000
Display aspect ratio                     : 1.778
Display aspect ratio                     : 16:9
Frame rate                               : 25.000
Frame rate                               : 25.000 fps
Frame count                              : 7502
Resolution                               : 8
Resolution                               : 8 bits
Colorimetry                              : 4:2:0
Color space                              : YUV
Chroma subsampling                       : 4:2:0
Bit depth                                : 8
Bit depth                                : 8 bits
Scan type                                : Progressive
Scan type                                : Progressive
Interlacement                            : PPF
Interlacement                            : Progressive
Compression mode                         : Lossy
Compression mode                         : Lossy
Bits/(Pixel*Frame)                       : 0.021
Delay                                    : 0
Delay                                    : 00:00:00.000
Stream size                              : 18284595
Stream size                              : 17.4 MiB (78%)
Stream size                              : 17 MiB
Stream size                              : 17 MiB
Stream size                              : 17.4 MiB
Stream size                              : 17.44 MiB
Stream size                              : 17.4 MiB (78%)
Proportion of this stream                : 0.77943
Writing library                          : XviD0064
Writing library                          : XviD 64
Writing library/Name                     : XviD
Writing library/Version                  : 64

Audio
Count                                    : 222
Count of stream of this kind             : 1
Kind of stream                           : Audio
Kind of stream                           : Audio
Stream identifier                        : 0
StreamOrder                              : 1
ID                                       : 1
ID                                       : 1
Format                                   : MPEG Audio
Commercial name                          : MPEG Audio
Format version                           : Version 1
Format profile                           : Layer 3
Format settings                          : Joint stereo / MS Stereo
Mode                                     : Joint stereo
Mode extension                           : MS Stereo
Internet media type                      : audio/mpeg
Codec ID                                 : 55
Codec ID/Hint                            : MP3
Codec ID/Url                             : http://www.iis.fraunhofer.de/amm/index.html
Codec                                    : MPA1L3
Codec                                    : MPEG-1 Audio layer 3
Codec/Family                             : MPEG-1
Codec/Info                               : MPEG-1 or 2 layer 3
Codec/Url                                : http://www.iis.fraunhofer.de/amm/index.html
Codec/CC                                 : 55
Codec profile                            : Joint stereo
Duration                                 : 300082
Duration                                 : 5mn 0s
Duration                                 : 5mn 0s 82ms
Duration                                 : 5mn 0s
Duration                                 : 00:05:00.082
Source duration                          : 300095
Source duration                          : 5mn 0s
Source duration                          : 5mn 0s 95ms
Source duration                          : 5mn 0s
Source duration                          : 00:05:00.095
Bit rate mode                            : CBR
Bit rate mode                            : Constant
Bit rate                                 : 128000
Bit rate                                 : 128 Kbps
Channel(s)                               : 2
Channel(s)                               : 2 channels
Sampling rate                            : 44100
Sampling rate                            : 44.1 KHz
Samples count                            : 13233616
Compression mode                         : Lossy
Compression mode                         : Lossy
Delay                                    : 0
Delay                                    : 00:00:00.000
Delay, origin                            : Stream
Delay, origin                            : Raw stream
Delay relative to video                  : 0
Video0 delay                             : 0
Stream size                              : 4801515
Stream size                              : 4.58 MiB (20%)
Stream size                              : 5 MiB
Stream size                              : 4.6 MiB
Stream size                              : 4.58 MiB
Stream size                              : 4.579 MiB
Stream size                              : 4.58 MiB (20%)
Proportion of this stream                : 0.20468
Alignment                                : Aligned
Alignment                                : Aligned on interleaves
Interleave, duration                     : 1.00
Interleave, duration                     : 40
Interleave, duration                     : 40 ms (1.00 video frame)

